<?xml version="1.0" encoding="UTF-8" standalone="no"?>
<!-- Created with Inkscape (http://www.inkscape.org/) -->

<svg
   width="512"
   height="512"
   viewBox="0 0 135.46667 135.46667"
   version="1.1"
   id="svg5"
   inkscape:version="1.1 (ce6663b3b7, 2021-05-25)"
   sodipodi:docname="affini logo 2.5.svg"
   inkscape:export-filename="/home/amelia/Writing/Human Domestication/affini logo 2.5 icon quintshape.png"
   inkscape:export-xdpi="96"
   inkscape:export-ydpi="96"
   xmlns:inkscape="http://www.inkscape.org/namespaces/inkscape"
   xmlns:sodipodi="http://sodipodi.sourceforge.net/DTD/sodipodi-0.dtd"
   xmlns="http://www.w3.org/2000/svg"
   xmlns:svg="http://www.w3.org/2000/svg">
  <sodipodi:namedview
     id="namedview7"
     pagecolor="#505050"
     bordercolor="#ffffff"
     borderopacity="1"
     inkscape:pageshadow="0"
     inkscape:pageopacity="0"
     inkscape:pagecheckerboard="1"
     inkscape:document-units="px"
     showgrid="false"
     inkscape:snap-page="true"
     inkscape:snap-bbox="true"
     inkscape:bbox-nodes="true"
     showguides="false"
     inkscape:guide-bbox="true"
     inkscape:snap-center="true"
     inkscape:snap-intersection-paths="true"
     inkscape:snap-object-midpoints="true"
     inkscape:zoom="1.4142136"
     inkscape:cx="235.82011"
     inkscape:cy="239.70919"
     inkscape:window-width="1920"
     inkscape:window-height="1056"
     inkscape:window-x="1920"
     inkscape:window-y="0"
     inkscape:window-maximized="1"
     inkscape:current-layer="layer1"
     inkscape:snap-smooth-nodes="true"
     inkscape:object-paths="true"
     inkscape:snap-global="true"
     inkscape:snap-midpoints="true">
    <sodipodi:guide
       position="70.348236,78.132975"
       orientation="0.54637762,-0.83753895"
       id="guide7888" />
    <inkscape:grid
       type="xygrid"
       id="grid21637" />
    <sodipodi:guide
       position="69.297511,68.292395"
       orientation="-0.83752907,-0.54639276"
       id="guide23926" />
    <sodipodi:guide
       position="57.043005,58.803923"
       orientation="-0.8375291,-0.54639272"
       id="guide6906" />
    <sodipodi:guide
       position="82.919201,75.685209"
       orientation="-0.83752902,-0.54639284"
       id="guide7089" />
    <sodipodi:guide
       position="53.612435,56.972518"
       orientation="0.54637768,-0.83753891"
       id="guide9522"
       inkscape:label=""
       inkscape:locked="false"
       inkscape:color="rgb(0,0,255)" />
    <sodipodi:guide
       position="83.455313,91.499886"
       orientation="0.85204536,0.52346796"
       id="guide12791" />
    <sodipodi:guide
       position="37.244579,68.944978"
       orientation="0.86141592,0.50790021"
       id="guide12931"
       inkscape:label=""
       inkscape:locked="false"
       inkscape:color="rgb(0,0,255)" />
    <sodipodi:guide
       position="72.814914,67.076405"
       orientation="-0.83752909,-0.54639274"
       id="guide25074"
       inkscape:label=""
       inkscape:locked="false"
       inkscape:color="rgb(0,0,255)" />
    <sodipodi:guide
       position="46.889555,52.586773"
       orientation="-0.83752909,-0.54639274"
       id="guide26767"
       inkscape:label=""
       inkscape:locked="false"
       inkscape:color="rgb(0,0,255)" />
    <sodipodi:guide
       position="83.455313,91.499886"
       orientation="-0.83752909,-0.54639274"
       id="guide26798"
       inkscape:label=""
       inkscape:locked="false"
       inkscape:color="rgb(0,0,255)" />
    <sodipodi:guide
       position="46.889555,52.586773"
       orientation="-0.61216155,0.79073272"
       id="guide27003" />
    <sodipodi:guide
       position="37.31157,68.83136"
       orientation="-0.4409262,0.89754336"
       id="guide27063"
       inkscape:label=""
       inkscape:locked="false"
       inkscape:color="rgb(0,0,255)" />
    <sodipodi:guide
       position="60.439686,86.045569"
       orientation="0.54637768,-0.83753891"
       id="guide27649"
       inkscape:label=""
       inkscape:locked="false"
       inkscape:color="rgb(0,0,255)" />
    <sodipodi:guide
       position="73.287085,66.352645"
       orientation="0.54637768,-0.83753891"
       id="guide27651"
       inkscape:label=""
       inkscape:locked="false"
       inkscape:color="rgb(0,0,255)" />
  </sodipodi:namedview>
  <defs
     id="defs2">
    <inkscape:path-effect
       effect="powerclip"
       id="path-effect11378"
       is_visible="true"
       lpeversion="1"
       inverse="true"
       flatten="false"
       hide_clip="false"
       message="Use fill-rule evenodd on &lt;b&gt;fill and stroke&lt;/b&gt; dialog if no flatten result after convert clip to paths." />
    <inkscape:path-effect
       effect="skeletal"
       id="path-effect9303"
       is_visible="true"
       lpeversion="1"
       pattern="M 0,0 H 1"
       copytype="single_stretched"
       prop_scale="1"
       scale_y_rel="false"
       spacing="0"
       normal_offset="0"
       tang_offset="0"
       prop_units="false"
       vertical_pattern="false"
       hide_knot="false"
       fuse_tolerance="0" />
    <inkscape:path-effect
       effect="powerclip"
       id="path-effect9088"
       is_visible="true"
       lpeversion="1"
       inverse="true"
       flatten="false"
       hide_clip="false"
       message="Use fill-rule evenodd on &lt;b&gt;fill and stroke&lt;/b&gt; dialog if no flatten result after convert clip to paths." />
    <clipPath
       clipPathUnits="userSpaceOnUse"
       id="clipPath11374">
      <path
         style="display:none;fill:none;stroke:#000000;stroke-width:1.07577px;stroke-linecap:butt;stroke-linejoin:miter;stroke-opacity:1"
         d="m 210.35722,152.28561 c 9.20669,24.74247 12.25055,45.84703 10.90727,63.00317 -14.60432,7.80783 -39.94918,13.61335 -59.89596,13.61055 l 20.57473,11.87932 c 21.41944,-1.27838 37.97799,-6.26765 56.02024,-15.84829 1.88522,-21.15909 -0.39205,-39.47615 -7.03157,-60.76543 z"
         id="path11376"
         sodipodi:nodetypes="ccccccc" />
      <path
         id="lpe_path-effect11378"
         style="display:block;fill:none;stroke:#000000;stroke-width:1.07577px;stroke-linecap:butt;stroke-linejoin:miter;stroke-opacity:1"
         class="powerclip"
         d="M 151.24935,161.85908 H 307.58831 V 291.1319 H 151.24935 Z m 59.10787,-9.57347 c 9.20669,24.74247 12.25055,45.84703 10.90727,63.00317 -14.60432,7.80783 -39.94918,13.61335 -59.89596,13.61055 l 20.57473,11.87932 c 21.41944,-1.27838 37.97799,-6.26765 56.02024,-15.84829 1.88522,-21.15909 -0.39205,-39.47615 -7.03157,-60.76543 z" />
    </clipPath>
  </defs>
  <g
     inkscape:groupmode="layer"
     id="layer6"
     inkscape:label="Circle"
     sodipodi:insensitive="true">
    <circle
       style="fill:#403d48;fill-opacity:1;stroke-width:0;stroke-linecap:square;stroke-linejoin:round;stroke-miterlimit:0;paint-order:fill markers stroke"
       id="path885"
       cx="67.733337"
       cy="67.733337"
       r="67.733337" />
  </g>
  <g
     inkscape:label="Base"
     inkscape:groupmode="layer"
     id="layer1"
     style="display:inline">
    <path
       style="fill:#b72650;fill-opacity:1;stroke-width:0;stroke-linecap:square;stroke-linejoin:round;stroke-miterlimit:0;paint-order:fill markers stroke"
       d="m 44.064319,76.301363 c -4.297864,-6.588168 -13.122734,-8.444827 -19.7109,-4.146966 -6.588168,4.297865 -8.444827,13.122736 -4.146967,19.710907 4.297866,6.588166 13.122739,8.444816 19.710904,4.146955 6.588167,-4.297859 8.444826,-13.12273 4.146963,-19.710896 z"
       id="path8365"
       sodipodi:nodetypes="sssss" />
    <path
       id="path8363"
       style="fill:#b72650;fill-opacity:1;stroke-width:0;stroke-linecap:square;stroke-linejoin:round;stroke-miterlimit:0;paint-order:fill markers stroke"
       d="m 83.796037,54.515394 c 0,0 -6.282408,23.620219 -7.315163,24.289109 -1.032754,0.668889 -25.225214,0.902676 -25.225214,0.902676 0,0 -4.06748,25.053571 -2.586856,27.692321 1.480623,2.63876 45.750343,13.00682 54.859456,12.86416 3.40109,-6.69607 14.92331,-49.605842 13.99442,-51.466091 C 116.59377,66.937322 83.796037,54.515394 83.796037,54.515394 Z m 9.433725,14.460329 c 4.606697,0.714792 10.046968,3.164411 13.979378,5.689837 -0.78961,9.980897 -6.1762,27.2094 -9.966963,35.96257 -11.442715,-0.20147 -28.783159,-4.51081 -39.193973,-9.5542 -0.003,-2.342628 0.265242,-7.470367 0.87781,-11.279857 6.33712,0.523638 18.539102,1.170453 24.921105,0.301656 3.383789,-5.237669 7.192506,-15.495664 9.382643,-21.120006 z"
       sodipodi:nodetypes="cscscscccccccc" />
    <path
       style="fill:#b72650;fill-opacity:1;stroke-width:0;stroke-linecap:square;stroke-linejoin:round;stroke-miterlimit:0;paint-order:fill markers stroke"
       d="M 34.723212,15.201558 C 31.98633,19.96558 24.5894,58.753855 25.265152,60.002665 c 0.675751,1.248812 18.101423,7.61186 18.101423,7.61186 0,0 9.546582,-22.598968 10.455996,-23.136831 0.909414,-0.537863 26.339492,4.467421 26.339492,4.467421 0,0 4.328236,-19.867531 3.250787,-21.704553 -1.077449,-1.83702 -42.486276,-11.96029 -48.689638,-12.039004 z"
       id="rect846"
       sodipodi:nodetypes="cscscsc" />
    <path
       id="path10342"
       style="fill:#b72650;stroke-width:0.264508px"
       d="m 95.585657,74.97198 c -1.496707,5.38317 -5.259024,14.509557 -8.340156,20.332903 -6.162272,0.184866 -17.464141,-0.50877 -23.121652,-1.250408 -0.309847,1.429875 -0.578519,2.779708 -0.792743,4.014488 8.351669,3.615217 21.725036,6.557347 30.446841,7.249067 3.080411,-7.548505 6.877783,-20.191629 8.094993,-27.936575 -1.83298,-0.88133 -4.215765,-1.778539 -6.287283,-2.409475 z"
       sodipodi:nodetypes="ccccccc" />
  </g>
  <g
     inkscape:groupmode="layer"
     id="layer3"
     inkscape:label="vertical lines"
     style="display:none">
    <path
       id="rect854"
       style="fill:#b72650;stroke-width:0;stroke-linecap:square;stroke-linejoin:round;stroke-miterlimit:0;paint-order:fill markers stroke"
       d="m 56.508161,48.189661 c -0.861516,0.700213 -1.272943,1.791281 -1.897161,2.834711 4.555908,8.919218 10.168796,17.701067 16.323489,25.021504 0,0 2.35941,-0.07554 3.433191,-0.48042 0.8512,-1.050399 1.619369,-3.25957 1.619369,-3.25957 C 71.368715,63.869959 65.841772,55.468494 60.213425,48.12675 c 0,0 -2.343641,-0.361201 -3.705264,0.06291 z m 12.010756,1.18484 c 2.732173,5.112776 6.050539,10.240871 10.097766,15.478369 1.771068,-3.181923 1.883118,-6.182537 1.953128,-8.491064 -1.1211,-2.152346 -2.161855,-3.766205 -3.510401,-5.381008 -2.201796,-0.81781 -5.153583,-1.597435 -8.540493,-1.606297 z m -16.845272,8.630776 c -1.288379,2.165988 -2.478021,4.427232 -2.913556,7.018763 1.944235,4.000109 4.329196,7.796806 7.36682,11.292275 2.439599,0.478119 4.943048,0.740642 7.557597,0.09968 -3.57215,-6.472491 -7.684422,-12.52489 -12.010861,-18.410716 z"
       sodipodi:nodetypes="ccccccccccccccccc" />
  </g>
  <g
     inkscape:groupmode="layer"
     id="layer2"
     inkscape:label="expanding"
     style="display:none">
    <path
       id="path2194"
       style="fill:#b72650;fill-opacity:1;stroke-width:0;stroke-linecap:square;stroke-linejoin:round;stroke-miterlimit:0;paint-order:fill markers stroke"
       d="m 65.481045,49.346723 c -0.160456,0.0021 -0.320945,0.0074 -0.481234,0.01552 -3.781653,0.193606 -7.097893,2.001325 -9.316679,4.72125 l 4.18e-4,-0.0013 -0.0049,0.0074 c -3.68536,4.424665 -6.619306,8.863006 -9.07361,13.395331 5.20095,-2.496014 12.119213,-4.175837 12.070913,-4.336837 -0.04254,-0.309446 -0.06463,-0.621517 -0.06577,-0.933873 1.79e-4,-3.892031 3.155325,-7.047175 7.047356,-7.047357 3.892331,-2.1e-4 7.047994,3.155025 7.048174,7.047357 2.09e-4,3.892629 -3.155546,7.048418 -7.048174,7.048175 -1.218514,-8.69e-4 -2.4161,-0.317447 -3.475677,-0.919166 -0.259206,-0.141385 -4.379675,5.236647 -8.919191,8.570313 5.173012,-0.507282 10.947828,-0.972141 15.814169,-2.290154 l 0.007,-8.7e-4 -0.0021,-4.18e-4 C 74.777439,73.056052 78.825063,67.7002 78.51076,61.55724 78.166537,54.831504 72.694944,49.508322 65.96229,49.349065 c -0.160452,-0.0038 -0.320781,-0.0046 -0.481235,-0.0025 z"
       sodipodi:nodetypes="scccccccccccccccccss" />
    <path
       id="path2375"
       style="fill:#b72650;fill-opacity:1;stroke:none;stroke-width:0.264508px;stroke-linecap:butt;stroke-linejoin:miter;stroke-opacity:1"
       d="m 62.293079,57.056977 c 0,0 0.935545,3.663749 1.063396,4.697201 -0.383548,0.543361 -0.903005,1.233038 -1.506168,1.683969 -3.689308,2.75816 -11.090815,5.181115 -12.485899,5.92185 -1.591375,0.84496 -3.169074,3.116959 -3.543484,5.795425 2.85127,0.691215 5.809489,0.08971 7.136565,-0.96711 1.164888,-0.927663 6.286545,-6.704505 10.171712,-9.050143 0.596153,-0.359921 1.316538,-0.510675 1.955786,-0.734415 0.958873,0.49009 3.884879,2.887626 3.884879,2.887626 0,0 -1.213993,-3.838386 -1.235302,-4.616136 0.351586,-0.724482 2.065934,-3.163158 2.065934,-3.163158 0,0 -2.963424,0.470249 -3.794446,0.512866 -0.809711,-0.41551 -3.712973,-2.967975 -3.712973,-2.967975 z"
       sodipodi:nodetypes="ccascsacccccc" />
  </g>
  <g
     inkscape:groupmode="layer"
     id="layer4"
     inkscape:label="quintshape"
     style="display:inline">
    <path
       id="path3882"
       style="fill:#b72650;stroke-width:0;stroke-linecap:square;stroke-linejoin:round;stroke-miterlimit:0;paint-order:fill markers stroke"
       transform="matrix(0.10418153,-0.20552989,0.20552989,0.10418153,-7.1715784,88.869152)"
       d="m 281.38025,274.46364 c -9.36631,4.04515 -57.09324,13.69995 -67.71271,11.28623 -8.68728,-13.58879 -36.17,-57.08182 -57.41819,-107.99917 47.25554,-9.61756 118.04752,-12.71636 125.47946,-9.88637 5.63686,9.93725 21.49242,61.13816 20.83995,69.89972 -1.90295,5.31152 -17.446,32.56697 -21.18851,36.69959 z"
       sodipodi:nodetypes="cccccc"
       clip-path="url(#clipPath11374)"
       inkscape:path-effect="#path-effect11378"
       inkscape:original-d="m 281.38025,274.46364 c -9.36631,4.04515 -57.09324,13.69995 -67.71271,11.28623 -8.68728,-13.58879 -36.17,-57.08182 -57.41819,-107.99917 47.25554,-9.61756 118.04752,-12.71636 125.47946,-9.88637 5.63686,9.93725 21.49242,61.13816 20.83995,69.89972 -1.90295,5.31152 -17.446,32.56697 -21.18851,36.69959 z" />
  </g>
  <g
     inkscape:groupmode="layer"
     id="layer5"
     inkscape:label="horizontal lines and star"
     style="display:none">
    <path
       id="rect12647"
       style="fill:#b72650;fill-opacity:1;stroke-width:0;stroke-linecap:square;stroke-linejoin:round;stroke-miterlimit:0;paint-order:fill markers stroke"
       d="m 57.658037,49.951739 c -2.314731,3.229648 -4.427692,6.882383 -6.219698,10.613318 L 67.007806,50.408055 c -2.664435,-0.24757 -5.574626,-0.365084 -9.349769,-0.456316 z m 12.979049,0.898333 -6.735248,4.393619 c 1.649835,-0.01454 3.278679,0.225767 4.870769,0.56825 l 6.313658,-4.118279 c -1.566754,-0.349038 -3.01509,-0.624665 -4.449179,-0.84359 z m 6.558361,1.340349 -6.323054,4.124815 c 0.9101,0.236412 1.805598,0.484402 2.681517,0.714906 -0.112626,0.92917 -0.224416,1.850152 -0.361538,2.766491 l 6.116751,-3.990412 c 0.205932,-0.926446 0.415179,-1.890871 0.631978,-2.90947 -0.971165,-0.259847 -1.876948,-0.492301 -2.745654,-0.70633 z m 1.611199,5.816899 -5.995423,3.911159 c -0.346087,1.61154 -0.843953,3.214772 -1.65491,4.825423 l 6.521186,-4.254313 c 0.395985,-1.449925 0.763802,-2.922613 1.129147,-4.482269 z m -20.35159,0.789667 -8.788873,5.733561 c -0.690984,1.668838 -1.310133,3.328974 -1.845686,4.950023 l 7.633989,-4.980253 c 0.774078,-1.979292 1.787518,-3.948145 3.00057,-5.703331 z m 18.207683,7.164193 -14.759784,9.628788 c 4.126364,-0.12588 8.207205,-0.4936 11.755535,-1.113214 1.248785,-3.238968 2.202012,-5.942102 3.004249,-8.515574 z m -22.033052,0.950215 -7.533903,4.91489 c -0.293931,1.024959 -0.550932,2.026954 -0.767199,2.99771 1.024028,0.152626 2.104244,0.283699 3.224848,0.393812 l 7.591914,-4.952472 c -1.134604,-0.09463 -2.213008,-0.236541 -3.19421,-0.413421 0.153983,-0.941493 0.382697,-1.931176 0.67855,-2.940519 z m 11.793121,2.9205 c -2.125908,0.427443 -4.408436,0.590464 -6.603299,0.562122 l -7.715286,5.032951 c 1.753578,0.116951 3.577047,0.185767 5.426765,0.205895 z" />
    <path
       id="path24973"
       style="fill:#b72650;stroke-width:0;stroke-linecap:square;stroke-linejoin:round;stroke-miterlimit:0;paint-order:fill markers stroke"
       inkscape:transform-center-x="-0.57184723"
       inkscape:transform-center-y="0.11020357"
       d="m 55.429739,68.887006 6.960172,-6.36794 -2.922531,-4.322705 5.054215,2.262137 3.673837,-3.401235 -1.024101,4.16999 4.229135,0.742984 -4.593248,1.991885 0.03381,5.537255 -2.778634,-4.416577 z"
       sodipodi:nodetypes="ccccccccccc" />
  </g>
  <g
     inkscape:groupmode="layer"
     id="layer7"
     inkscape:label="dots"
     style="display:none">
    <circle
       style="fill:#b72650;fill-opacity:1;stroke:none;stroke-width:0;stroke-linecap:square;stroke-linejoin:round;stroke-miterlimit:0;paint-order:fill markers stroke"
       id="path27145"
       cx="72.123756"
       cy="68.824814"
       r="4.1832323" />
    <circle
       style="fill:#b72650;fill-opacity:1;stroke:none;stroke-width:0;stroke-linecap:square;stroke-linejoin:round;stroke-miterlimit:0;paint-order:fill markers stroke"
       id="circle27329"
       cx="61.967472"
       cy="53.256927"
       r="4.1832323" />
    <circle
       style="fill:#b72650;fill-opacity:1;stroke:none;stroke-width:0;stroke-linecap:square;stroke-linejoin:round;stroke-miterlimit:0;paint-order:fill markers stroke"
       id="circle27331"
       cx="55.429737"
       cy="68.887009"
       r="6.6392159" />
    <circle
       style="fill:#b72650;fill-opacity:1;stroke:none;stroke-width:0;stroke-linecap:square;stroke-linejoin:round;stroke-miterlimit:0;paint-order:fill markers stroke"
       id="circle27333"
       cx="75.885941"
       cy="55.542183"
       r="2.8728762" />
    <circle
       style="fill:#b72650;fill-opacity:1;stroke:none;stroke-width:0;stroke-linecap:square;stroke-linejoin:round;stroke-miterlimit:0;paint-order:fill markers stroke"
       id="circle27653"
       cx="65.657837"
       cy="62.214596"
       r="2.7746708" />
  </g>
</svg>
