<?xml version="1.0" encoding="UTF-8" standalone="no"?>
<!-- Created with Inkscape (http://www.inkscape.org/) -->

<svg
   xmlns:dc="http://purl.org/dc/elements/1.1/"
   xmlns:cc="http://creativecommons.org/ns#"
   xmlns:rdf="http://www.w3.org/1999/02/22-rdf-syntax-ns#"
   xmlns:svg="http://www.w3.org/2000/svg"
   xmlns="http://www.w3.org/2000/svg"
   xmlns:sodipodi="http://sodipodi.sourceforge.net/DTD/sodipodi-0.dtd"
   xmlns:inkscape="http://www.inkscape.org/namespaces/inkscape"
   width="210mm"
   height="297mm"
   viewBox="0 0 210 297"
   version="1.1"
   id="svg4740"
   inkscape:version="0.92.4 (5da689c313, 2019-01-14)"
   sodipodi:docname="domprot tier 3.svg"
   inkscape:export-filename="C:\Users\conno\Documents\GitHub\domestication-mod\other_gfx\domprot tier 3.png"
   inkscape:export-xdpi="4.2860112"
   inkscape:export-ydpi="4.2860112">
  <defs
     id="defs4734" />
  <sodipodi:namedview
     id="base"
     pagecolor="#ffffff"
     bordercolor="#666666"
     borderopacity="1.0"
     inkscape:pageopacity="0.0"
     inkscape:pageshadow="2"
     inkscape:zoom="0.49497475"
     inkscape:cx="0.93235332"
     inkscape:cy="485.95938"
     inkscape:document-units="mm"
     inkscape:current-layer="layer1"
     showgrid="false"
     inkscape:window-width="1920"
     inkscape:window-height="1009"
     inkscape:window-x="-8"
     inkscape:window-y="-8"
     inkscape:window-maximized="1" />
  <metadata
     id="metadata4737">
    <rdf:RDF>
      <cc:Work
         rdf:about="">
        <dc:format>image/svg+xml</dc:format>
        <dc:type
           rdf:resource="http://purl.org/dc/dcmitype/StillImage" />
        <dc:title></dc:title>
      </cc:Work>
    </rdf:RDF>
  </metadata>
  <g
     inkscape:label="Layer 1"
     inkscape:groupmode="layer"
     id="layer1">
    <path
       style="fill:none;fill-opacity:1;fill-rule:evenodd;stroke:#6af9db;stroke-width:9.83810997;stroke-linecap:butt;stroke-linejoin:round;stroke-miterlimit:4;stroke-dasharray:none;stroke-opacity:1"
       d="m 252.94531,134.08008 c 0,0 -17.42123,61.08008 -24.15039,92.57812 -6.72917,31.49801 -16.10156,96.23828 -16.10156,96.23828 0,0 23.45612,13.68933 36.22656,19.39454 12.77045,5.70523 29.39282,11.60625 29.39282,11.60625 0,0 17.10671,-39.28943 24.54276,-55.63631 7.43606,-16.34684 20.67623,-47.05913 22.37265,-51.52341 0,0 40.27211,11.08252 58.75428,13.99899 18.48219,2.91648 63.2324,9.87891 63.2324,9.87891 0,0 7.32367,-29.03028 10.28126,-44.32248 2.95764,-15.29234 5.49024,-41.34961 5.49024,-41.34961 0,0 -65.23006,-21.09671 -100.26367,-29.64063 -35.03367,-8.54381 -109.77735,-21.22265 -109.77735,-21.22265 z"
       transform="scale(0.26458333)"
       id="path5314"
       inkscape:connector-curvature="0"
       sodipodi:nodetypes="cscccccsccccc" />
    <path
       style="fill:#6af9db;fill-opacity:1;fill-rule:evenodd;stroke:none;stroke-width:9.83897495;stroke-linecap:butt;stroke-linejoin:round;stroke-miterlimit:4;stroke-dasharray:none;stroke-opacity:1"
       d="m 513.28125,324.56836 c 0,0 -7.29163,21.25823 -11.98828,38.21289 -0.007,0.024 -0.0206,0.0753 -0.0274,0.0996 l 60.1543,26.61328 c 0,0 -8.6293,51.52612 -16.10351,76.48242 -7.55777,25.23529 -28.90821,73.54883 -28.90821,73.54883 0,0 -60.75381,-6.11032 -90.01758,-14.27148 -24.61073,-6.86351 -70.98627,-28.9082 -70.98627,-28.9082 0.28345,-15.03202 0.33449,-20.4745 0.81138,-35.50163 -18.20685,-2.05116 -30.74637,-2.94683 -37.53209,-4.01826 0,0 -0.3922,8.50953 -2.3457,27.78138 -1.9535,19.27181 -4.84375,42.47852 -4.84375,42.47852 0,0 72.24507,24.89008 111.23828,33.66015 38.99318,8.77007 122.21875,18.29493 122.21875,18.29493 0,0 23.17768,-66.52246 33.30274,-102.45704 10.12501,-35.93438 27.07617,-113.07226 27.07617,-113.07226 0,0 -22.98288,-9.59129 -47.12696,-19.67774 -24.1441,-10.08648 -44.92187,-19.26562 -44.92187,-19.26562 z"
       transform="scale(0.26458333)"
       id="path5312"
       inkscape:connector-curvature="0"
       sodipodi:nodetypes="ccccscscccscscscscc" />
    <path
       style="fill:none;fill-opacity:1;fill-rule:evenodd;stroke:#6af9db;stroke-width:9.83897495;stroke-linecap:butt;stroke-linejoin:round;stroke-miterlimit:4;stroke-dasharray:none;stroke-opacity:1"
       d="m 240.18945,363.00391 c -7.84284,-0.0284 -15.75199,1.35291 -22.73828,4.53515 -13.74665,6.26184 -26.32984,17.33619 -33.29883,30.73828 -6.75671,12.99379 -8.79116,29.19663 -5.85546,43.54493 2.67519,13.07535 10.21893,25.87708 20.49218,34.39648 10.09931,8.37494 23.84539,13.06893 36.95703,13.53906 14.58382,0.5229 30.22766,-3.56524 42.08203,-12.07617 9.75705,-7.00482 16.23394,-18.40765 20.49219,-29.63867 3.61507,-9.53473 5.38337,-20.32099 3.65821,-30.37109 -2.46407,-14.35476 -8.94581,-29.00574 -19.39258,-39.1543 -8.37748,-8.13838 -20.30685,-12.76735 -31.83594,-14.63672 -3.44455,-0.55854 -6.99562,-0.86404 -10.56055,-0.87695 z"
       transform="scale(0.26458333)"
       id="path5308"
       inkscape:connector-curvature="0" />
    <path
       style="fill:none;fill-opacity:1;fill-rule:evenodd;stroke:#6af9db;stroke-width:9.83897495;stroke-linecap:butt;stroke-linejoin:round;stroke-miterlimit:4;stroke-dasharray:none;stroke-opacity:1"
       d="m 503.06474,386.637 c 0,0 -8.99292,28.99571 -11.79772,43.95452 -2.38568,12.72346 -11.85826,52.72573 -11.85826,52.72573 0,0 -35.48656,-7.05205 -51.47265,-9.61664 -16.18414,-2.59635 -48.3552,-9.38253 -48.3552,-9.38253 l -1.12393,22.14676 c 0,0 32.9598,13.7812 53.79102,19.02735 20.83123,5.24615 70.98828,10.97851 70.98828,10.97851 0,0 16.92899,-39.76587 23.05469,-59.27929 6.12563,-19.51322 13.90429,-57.45118 13.90429,-57.45118 z"
       transform="scale(0.26458333)"
       id="path4524"
       inkscape:connector-curvature="0"
       sodipodi:nodetypes="cscsccscscc" />
    <flowRoot
       xml:space="preserve"
       id="flowRoot5327"
       style="font-style:normal;font-variant:normal;font-weight:bold;font-stretch:normal;font-size:40px;line-height:1.25;font-family:Arial;-inkscape-font-specification:'Arial, Bold';font-variant-ligatures:normal;font-variant-caps:normal;font-variant-numeric:normal;font-feature-settings:normal;text-align:start;letter-spacing:0px;word-spacing:0px;writing-mode:lr-tb;text-anchor:start;fill:#6af9db;fill-opacity:1;stroke:none"
       transform="matrix(0.44528923,0,0,0.44528923,-73.743739,-73.614629)"><flowRegion
         id="flowRegion5329"
         style="font-style:normal;font-variant:normal;font-weight:bold;font-stretch:normal;font-size:40px;font-family:Arial;-inkscape-font-specification:'Arial, Bold';font-variant-ligatures:normal;font-variant-caps:normal;font-variant-numeric:normal;font-feature-settings:normal;text-align:start;writing-mode:lr-tb;text-anchor:start;fill:#6af9db;fill-opacity:1"><rect
           id="rect5331"
           width="110.50873"
           height="154.26624"
           x="359.61432"
           y="308.33673"
           style="font-style:normal;font-variant:normal;font-weight:bold;font-stretch:normal;font-size:40px;font-family:Arial;-inkscape-font-specification:'Arial, Bold';font-variant-ligatures:normal;font-variant-caps:normal;font-variant-numeric:normal;font-feature-settings:normal;text-align:start;writing-mode:lr-tb;text-anchor:start;fill:#6af9db;fill-opacity:1" /></flowRegion><flowPara
         id="flowPara5333"
         style="font-style:normal;font-variant:normal;font-weight:bold;font-stretch:normal;font-size:133.33332825px;font-family:Arial;-inkscape-font-specification:'Arial, Bold';font-variant-ligatures:normal;font-variant-caps:normal;font-variant-numeric:normal;font-feature-settings:normal;text-align:start;writing-mode:lr-tb;text-anchor:start;fill:#6af9db;fill-opacity:1">3</flowPara><flowPara
         style="font-style:normal;font-variant:normal;font-weight:bold;font-stretch:normal;font-size:133.33332825px;font-family:Arial;-inkscape-font-specification:'Arial, Bold';font-variant-ligatures:normal;font-variant-caps:normal;font-variant-numeric:normal;font-feature-settings:normal;text-align:start;writing-mode:lr-tb;text-anchor:start;fill:#6af9db;fill-opacity:1"
         id="flowPara5336" /></flowRoot>    <path
       style="fill:none;stroke:#6af9db;stroke-width:2.60299993;stroke-linecap:butt;stroke-linejoin:round;stroke-miterlimit:4;stroke-dasharray:none;stroke-opacity:1"
       d="m 56.412945,97.712053 -8.40997,-10.677827 c 0,0 -2.347349,-9.695903 -0.932134,-17.96218 0.887088,-5.181483 4.080793,-9.127077 6.223801,-12.464903 2.691334,-4.191866 4.867483,-9.000033 6.25477,-14.45958 1.976588,-7.778686 1.304754,-15.778516 1.304754,-15.778516 0,0 10.508345,-3.633027 20.838437,-1.839643 5.78511,1.004339 11.193285,7.10431 15.447277,8.265239 5.4487,1.48697 11.99035,6.275864 18.7514,8.915578 7.89049,3.080673 15.64443,3.93561 15.64443,3.93561 0,0 -4.0533,9.267277 -4.85153,14.089904 -0.71367,4.311798 0.31582,13.31337 0.31582,13.31337 0,0 14.18322,0.488812 20.66062,3.001075 7.00375,2.716408 19.78283,12.684938 19.78283,12.684938 0,0 -3.24849,9.655968 -4.47114,20.040872 -0.78346,6.65454 -0.9946,13.2304 -0.44255,18.5127 0.50177,4.80117 1.86491,13.38447 -0.50546,19.30142 -3.53492,8.82396 -12.53472,14.33846 -12.53472,14.33846 0,0 -8.85439,-3.60388 -19.02568,-5.15219 -7.15155,-1.08864 -15.09945,-2.27112 -20.47283,-1.08442 -4.69981,1.03794 -13.420147,3.01347 -19.37054,1.39749 -9.011163,-2.4472 -14.647316,-10.46892 -14.647316,-10.46892 L 71.24851,127.57216"
       id="path5338"
       inkscape:connector-curvature="0"
       sodipodi:nodetypes="ccssscssscscscssscssscc" />
    <path
       style="fill:none;stroke:#6af9db;stroke-width:2.60299993;stroke-linecap:butt;stroke-linejoin:round;stroke-miterlimit:4;stroke-dasharray:none;stroke-opacity:1"
       d="m 48.00297,87.034225 c 0,0 4.814088,-7.768512 6.238582,-16.081733 0.881371,-5.143603 -0.41343,-10.446776 -0.946912,-14.34535 -0.62564,-4.572041 -1.736223,-10.78784 -0.315003,-16.369763 1.934548,-7.59805 7.874523,-13.868332 7.874523,-13.868332 -0.132932,1.528722 23.90718,9.269079 36.28572,6.425596 5.61112,-1.288935 15.42491,-1.662177 22.26436,1.630416 7.70058,3.707151 12.13147,11.220772 12.13147,11.220772 0,0 2.77647,10.184329 1.8588,15.208399 C 132.56979,65.369429 127,73.049105 127,73.049105 c 0,0 12.62464,8.024491 19.31493,10.619326 6.79085,2.633836 21.12851,5.066687 21.12851,5.066687 0,0 4.67247,11.447732 3.39368,22.104522 -0.77164,6.43045 -5.69186,12.19561 -8.30737,16.44905 -2.24388,3.64908 -7.26223,8.29193 -9.34611,13.60427 -3.76639,9.60151 -3.69407,20.03561 -3.69407,20.03561 0,0 -9.35192,3.94794 -19.84892,2.33925 -6.91209,-1.05929 -14.90268,-6.23604 -19.64958,-8.57586 -5.22692,-2.57643 -11.676174,-5.89195 -18.316192,-7.71989 -7.945042,-2.1872 -15.701668,-1.35154 -15.701668,-1.35154"
       id="path5338-9"
       inkscape:connector-curvature="0"
       sodipodi:nodetypes="cssscsscscscssscsssc" />
    <path
       style="fill:#6af9db;stroke:#6af9db;stroke-width:0.26458332px;stroke-linecap:butt;stroke-linejoin:miter;stroke-opacity:1;fill-opacity:1"
       d="m 58.932931,103.36323 c 1.661447,-1.09169 3.804902,-1.70896 5.778991,-1.4741 1.989392,0.23668 4.021454,1.27865 5.312694,2.81044 1.752251,2.07869 2.642035,5.03407 2.539061,7.75082 -0.105904,2.79405 -1.018755,6.01056 -3.207234,7.75082 -2.332855,1.85507 -5.986836,2.39586 -8.819896,1.46998 -2.604924,-0.85133 -4.635017,-3.37485 -5.746295,-5.87993 -0.886745,-1.99893 -1.043741,-4.45794 -0.400905,-6.54811 0.728133,-2.36751 2.473513,-4.51974 4.543584,-5.87992 z"
       id="path5355"
       inkscape:connector-curvature="0"
       sodipodi:nodetypes="aaaaaaaaa" />
    <path
       style="fill:none;stroke:#6af9db;stroke-width:2.60299993;stroke-linecap:butt;stroke-linejoin:miter;stroke-miterlimit:4;stroke-dasharray:none;stroke-opacity:1"
       d="m 71.24851,127.57216 4.724704,18.04837 c 0,0 -5.364087,5.72967 -8.976934,6.52009 -4.236243,0.92681 -9.137213,-0.16301 -12.756697,-2.55133 -2.136648,-1.40987 -4.346725,-6.33111 -4.346725,-6.33111 l 7.559524,-14.55208 c 4.495633,1.06509 9.050184,1.30532 13.796128,-1.13394 z"
       id="path5357"
       inkscape:connector-curvature="0"
       sodipodi:nodetypes="ccssccc" />
    <path
       style="fill:none;stroke:#6af9db;stroke-width:2.60299993;stroke-linecap:butt;stroke-linejoin:miter;stroke-miterlimit:4;stroke-dasharray:none;stroke-opacity:1"
       d="m 57.452382,128.7061 -7.559524,14.55208 c 0,0 -4.844793,-0.0321 -6.898067,-1.13392 -4.281227,-2.29734 -8.40373,-6.06244 -9.921875,-10.67784 -0.871661,-2.64999 0.94494,-8.31547 0.94494,-8.31547 l 14.552085,-2.55134 c 2.333024,4.46664 5.289499,7.18762 8.882441,8.12649 z"
       id="path5359"
       inkscape:connector-curvature="0"
       sodipodi:nodetypes="ccssccc" />
    <path
       style="fill:none;stroke:#6af9db;stroke-width:2.60299993;stroke-linecap:butt;stroke-linejoin:miter;stroke-miterlimit:4;stroke-dasharray:none;stroke-opacity:1"
       d="m 48.569941,120.57961 -14.552085,2.55134 c 0,0 -4.840235,-2.15617 -5.953123,-4.34673 -2.082927,-4.09994 -1.98327,-9.64706 -1e-6,-13.79613 0.994978,-2.08153 5.386161,-4.34672 5.386161,-4.34672 l 13.985118,7.37053 c -1.674985,4.46296 -0.964709,8.6079 1.13393,12.56771 z"
       id="path5363"
       inkscape:connector-curvature="0"
       sodipodi:nodetypes="ccssccc" />
    <path
       style="fill:none;stroke:#6af9db;stroke-width:2.60299993;stroke-linecap:butt;stroke-linejoin:miter;stroke-miterlimit:4;stroke-dasharray:none;stroke-opacity:1"
       d="m 47.436011,108.0119 -13.985118,-7.37053 c 0,0 -0.516029,-3.819632 0.09449,-5.575152 1.158831,-3.332164 6.425593,-8.40997 6.425593,-8.40997 1.414911,-1.85187 5.775166,-0.117424 8.031995,0.377978 L 56.41294,97.712053 C 51.947698,99.5385 49.131767,103.1642 47.436011,108.0119 Z"
       id="path5365"
       inkscape:connector-curvature="0"
       sodipodi:nodetypes="ccssccc" />
    <path
       style="fill:none;stroke:#6af9db;stroke-width:1.29999995;stroke-linecap:round;stroke-linejoin:round;stroke-miterlimit:4;stroke-dasharray:none;stroke-opacity:1"
       d="M 86.049947,65.282643 66.925112,35.475354"
       id="path5367"
       inkscape:connector-curvature="0"
       sodipodi:nodetypes="cc" />
    <path
       style="fill:none;stroke:#6af9db;stroke-width:1.3;stroke-linecap:round;stroke-linejoin:round;stroke-miterlimit:4;stroke-dasharray:none;stroke-opacity:1"
       d="m 67.218287,69.152727 c 0,0 -0.858924,-19.171974 5.879928,-23.786989 7.225398,-4.94822 26.058777,3.34087 26.058777,3.34087"
       id="path5369"
       inkscape:connector-curvature="0"
       sodipodi:nodetypes="csc" />
    <path
       style="fill:none;stroke:#6af9db;stroke-width:1.3;stroke-linecap:round;stroke-linejoin:round;stroke-miterlimit:4;stroke-dasharray:none;stroke-opacity:1"
       d="m 75.904544,71.424519 c 0,0 0.397844,-11.737751 4.677217,-14.432555 5.666753,-3.568464 19.911579,2.672693 19.911579,2.672693"
       id="path5373"
       inkscape:connector-curvature="0"
       sodipodi:nodetypes="csc" />
  </g>
</svg>
