<?xml version="1.0" encoding="UTF-8" standalone="no"?>
<!-- Created with Inkscape (http://www.inkscape.org/) -->

<svg
   xmlns:dc="http://purl.org/dc/elements/1.1/"
   xmlns:cc="http://creativecommons.org/ns#"
   xmlns:rdf="http://www.w3.org/1999/02/22-rdf-syntax-ns#"
   xmlns:svg="http://www.w3.org/2000/svg"
   xmlns="http://www.w3.org/2000/svg"
   xmlns:sodipodi="http://sodipodi.sourceforge.net/DTD/sodipodi-0.dtd"
   xmlns:inkscape="http://www.inkscape.org/namespaces/inkscape"
   width="210mm"
   height="297mm"
   viewBox="0 0 210 297"
   version="1.1"
   id="svg4740"
   inkscape:version="0.92.4 (5da689c313, 2019-01-14)"
   sodipodi:docname="domprot tier 2.svg"
   inkscape:export-filename="C:\Users\conno\Documents\GitHub\domestication-mod\other_gfx\domprot tier 2.png"
   inkscape:export-xdpi="5.3200002"
   inkscape:export-ydpi="5.3200002">
  <defs
     id="defs4734" />
  <sodipodi:namedview
     id="base"
     pagecolor="#ffffff"
     bordercolor="#666666"
     borderopacity="1.0"
     inkscape:pageopacity="0.0"
     inkscape:pageshadow="2"
     inkscape:zoom="1.4"
     inkscape:cx="462.99406"
     inkscape:cy="755.2773"
     inkscape:document-units="mm"
     inkscape:current-layer="layer1"
     showgrid="false"
     inkscape:window-width="1920"
     inkscape:window-height="1009"
     inkscape:window-x="-8"
     inkscape:window-y="-8"
     inkscape:window-maximized="1" />
  <metadata
     id="metadata4737">
    <rdf:RDF>
      <cc:Work
         rdf:about="">
        <dc:format>image/svg+xml</dc:format>
        <dc:type
           rdf:resource="http://purl.org/dc/dcmitype/StillImage" />
        <dc:title />
      </cc:Work>
    </rdf:RDF>
  </metadata>
  <g
     inkscape:label="Layer 1"
     inkscape:groupmode="layer"
     id="layer1">
    <path
       style="fill:#6af9db;fill-opacity:1;fill-rule:evenodd;stroke:none;stroke-width:9.83897495;stroke-linecap:butt;stroke-linejoin:round;stroke-miterlimit:4;stroke-dasharray:none;stroke-opacity:1"
       d="m 252.94531,134.08008 c 0,0 -17.42123,61.08008 -24.15039,92.57812 -6.72917,31.49801 -16.10156,96.23828 -16.10156,96.23828 0,0 23.45612,13.68933 36.22656,19.39454 12.77045,5.70523 40.25196,14.63671 40.25196,14.63671 0,0 16.3491,-35.24882 23.78515,-51.5957 7.43606,-16.34684 20.85742,-46.47266 20.85742,-46.47265 0,0 34.21119,4.76907 52.69336,7.68554 18.48219,2.91648 58.18164,9.87891 58.18164,9.87891 0,0 9.84905,-34.83866 12.80664,-50.13086 2.95764,-15.29234 5.49024,-41.34961 5.49024,-41.34961 0,0 -65.23006,-21.09671 -100.26367,-29.64063 -35.03367,-8.54381 -109.77735,-21.22265 -109.77735,-21.22265 z"
       transform="scale(0.26458333)"
       id="path5314"
       inkscape:connector-curvature="0" />
    <path
       style="fill:none;fill-opacity:1;fill-rule:evenodd;stroke:#6af9db;stroke-width:9.83897495;stroke-linecap:butt;stroke-linejoin:round;stroke-miterlimit:4;stroke-dasharray:none;stroke-opacity:1"
       d="m 513.28125,324.56836 c 0,0 -7.29163,21.25823 -11.98828,38.21289 -0.007,0.024 -0.0206,0.0753 -0.0274,0.0996 l 60.1543,26.61328 c 0,0 -8.6293,51.52612 -16.10351,76.48242 -7.55777,25.23529 -28.90821,73.54883 -28.90821,73.54883 0,0 -60.75381,-6.11032 -90.01758,-14.27148 -24.61073,-6.86351 -70.98627,-28.9082 -70.98627,-28.9082 l -0.35742,-45.08984 c -0.0807,-0.002 -0.18168,-0.009 -0.25977,-0.01 -18.20685,-0.15712 -36.10351,-2.375 -36.10352,-2.375 0,0 -0.3922,16.46448 -2.3457,35.73633 -1.9535,19.27181 -4.84375,42.47852 -4.84375,42.47852 0,0 72.24507,24.89008 111.23828,33.66015 38.99318,8.77007 122.21875,18.29493 122.21875,18.29493 0,0 23.17768,-66.52246 33.30274,-102.45704 10.12501,-35.93438 27.07617,-113.07226 27.07617,-113.07226 0,0 -22.98288,-9.59129 -47.12696,-19.67774 -24.1441,-10.08648 -44.92187,-19.26562 -44.92187,-19.26562 z"
       transform="scale(0.26458333)"
       id="path5312"
       inkscape:connector-curvature="0"
       sodipodi:nodetypes="ccccscsccccscscscscc" />
    <path
       style="fill:#6af9db;fill-opacity:1;fill-rule:evenodd;stroke:none;stroke-width:9.83897495;stroke-linecap:butt;stroke-linejoin:round;stroke-miterlimit:4;stroke-dasharray:none;stroke-opacity:1"
       d="m 240.18945,363.00391 c -7.84284,-0.0284 -15.75199,1.35291 -22.73828,4.53515 -13.74665,6.26184 -26.32984,17.33619 -33.29883,30.73828 -6.75671,12.99379 -8.79116,29.19663 -5.85546,43.54493 2.67519,13.07535 10.21893,25.87708 20.49218,34.39648 10.09931,8.37494 23.84539,13.06893 36.95703,13.53906 14.58382,0.5229 30.22766,-3.56524 42.08203,-12.07617 9.75705,-7.00482 16.23394,-18.40765 20.49219,-29.63867 3.61507,-9.53473 5.38337,-20.32099 3.65821,-30.37109 -2.46407,-14.35476 -8.94581,-29.00574 -19.39258,-39.1543 -8.37748,-8.13838 -20.30685,-12.76735 -31.83594,-14.63672 -3.44455,-0.55854 -6.99562,-0.86404 -10.56055,-0.87695 z"
       transform="scale(0.26458333)"
       id="path5308"
       inkscape:connector-curvature="0" />
    <path
       style="fill:none;fill-opacity:1;fill-rule:evenodd;stroke:#6af9db;stroke-width:9.83897495;stroke-linecap:butt;stroke-linejoin:round;stroke-miterlimit:4;stroke-dasharray:none;stroke-opacity:1"
       d="m 498.06474,384.49414 c 0,0 -6.91214,30.51698 -12.51201,44.66881 -5.59996,14.15203 -15.42968,33.44001 -15.42968,33.44001 0,0 -29.21708,-0.23455 -45.40123,-0.68806 -16.18414,-0.4535 -46.21234,-2.95396 -46.21234,-2.95396 l -0.0525,27.5039 c 0,0 32.9598,13.7812 53.79102,19.02735 20.83123,5.24615 70.98828,10.97851 70.98828,10.97851 0,0 16.92899,-39.76587 23.05469,-59.27929 6.12563,-19.51322 13.90429,-57.45118 13.90429,-57.45118 z"
       transform="scale(0.26458333)"
       id="path4524"
       inkscape:connector-curvature="0"
       sodipodi:nodetypes="cscsccscscc" />
    <flowRoot
       xml:space="preserve"
       id="flowRoot5327"
       style="font-style:normal;font-variant:normal;font-weight:bold;font-stretch:normal;font-size:40px;line-height:1.25;font-family:Arial;-inkscape-font-specification:'Arial, Bold';font-variant-ligatures:normal;font-variant-caps:normal;font-variant-numeric:normal;font-feature-settings:normal;text-align:start;letter-spacing:0px;word-spacing:0px;writing-mode:lr-tb;text-anchor:start;fill:#6af9db;fill-opacity:1;stroke:none"
       transform="matrix(0.36800763,0,0,0.36800763,-40.976258,-45.213631)"><flowRegion
         id="flowRegion5329"
         style="font-style:normal;font-variant:normal;font-weight:bold;font-stretch:normal;font-size:40px;font-family:Arial;-inkscape-font-specification:'Arial, Bold';font-variant-ligatures:normal;font-variant-caps:normal;font-variant-numeric:normal;font-feature-settings:normal;text-align:start;writing-mode:lr-tb;text-anchor:start;fill:#6af9db;fill-opacity:1"><rect
           id="rect5331"
           width="110.50873"
           height="154.26624"
           x="359.61432"
           y="308.33673"
           style="font-style:normal;font-variant:normal;font-weight:bold;font-stretch:normal;font-size:40px;font-family:Arial;-inkscape-font-specification:'Arial, Bold';font-variant-ligatures:normal;font-variant-caps:normal;font-variant-numeric:normal;font-feature-settings:normal;text-align:start;writing-mode:lr-tb;text-anchor:start;fill:#6af9db;fill-opacity:1" /></flowRegion><flowPara
         id="flowPara5333"
         style="font-style:normal;font-variant:normal;font-weight:bold;font-stretch:normal;font-size:133.33332825px;font-family:Arial;-inkscape-font-specification:'Arial, Bold';font-variant-ligatures:normal;font-variant-caps:normal;font-variant-numeric:normal;font-feature-settings:normal;text-align:start;writing-mode:lr-tb;text-anchor:start;fill:#6af9db;fill-opacity:1">2</flowPara></flowRoot>    <path
       style="fill:none;stroke:#131917;stroke-width:1.29999995;stroke-linecap:round;stroke-linejoin:round;stroke-miterlimit:4;stroke-dasharray:none;stroke-opacity:1"
       d="M 88.321739,68.489877 66.925111,35.475352"
       id="path5367"
       inkscape:connector-curvature="0" />
    <path
       style="fill:none;stroke:#131917;stroke-width:1.29999995;stroke-linecap:round;stroke-linejoin:round;stroke-miterlimit:4;stroke-dasharray:none;stroke-opacity:1"
       d="m 67.218286,69.152727 c 0,0 -0.858924,-19.171976 5.879928,-23.786991 7.225399,-4.94822 26.058779,3.34087 26.058779,3.34087"
       id="path5369"
       inkscape:connector-curvature="0"
       sodipodi:nodetypes="csc" />
    <path
       style="fill:none;stroke:#131917;stroke-width:1.29999995;stroke-linecap:round;stroke-linejoin:round;stroke-miterlimit:4;stroke-dasharray:none;stroke-opacity:1"
       d="m 75.904544,71.424519 c 0,0 0.397844,-11.737753 4.677217,-14.432557 5.666753,-3.568464 19.911579,2.672693 19.911579,2.672693"
       id="path5373"
       inkscape:connector-curvature="0"
       sodipodi:nodetypes="csc" />
  </g>
</svg>
