<?xml version="1.0" encoding="UTF-8" standalone="no"?>
<!-- Created with Inkscape (http://www.inkscape.org/) -->

<svg
   xmlns:dc="http://purl.org/dc/elements/1.1/"
   xmlns:cc="http://creativecommons.org/ns#"
   xmlns:rdf="http://www.w3.org/1999/02/22-rdf-syntax-ns#"
   xmlns:svg="http://www.w3.org/2000/svg"
   xmlns="http://www.w3.org/2000/svg"
   xmlns:xlink="http://www.w3.org/1999/xlink"
   xmlns:sodipodi="http://sodipodi.sourceforge.net/DTD/sodipodi-0.dtd"
   xmlns:inkscape="http://www.inkscape.org/namespaces/inkscape"
   width="210mm"
   height="210mm"
   viewBox="0 0 210 210"
   version="1.1"
   id="svg4740"
   inkscape:version="0.92.4 (5da689c313, 2019-01-14)"
   sodipodi:docname="domprot icon 1.svg"
   inkscape:export-filename="C:\Users\conno\Documents\GitHub\domestication-mod\other_gfx\domprot perk4.png"
   inkscape:export-xdpi="2.9000001"
   inkscape:export-ydpi="2.9000001">
  <defs
     id="defs4734">
    <linearGradient
       inkscape:collect="always"
       id="linearGradient917">
      <stop
         style="stop-color:#69f8da;stop-opacity:1"
         offset="0"
         id="stop913" />
      <stop
         style="stop-color:#2e6156;stop-opacity:1"
         offset="1"
         id="stop915" />
    </linearGradient>
    <linearGradient
       inkscape:collect="always"
       id="linearGradient907">
      <stop
         style="stop-color:#69f8da;stop-opacity:1"
         offset="0"
         id="stop903" />
      <stop
         style="stop-color:#2e6156;stop-opacity:1"
         offset="1"
         id="stop905" />
    </linearGradient>
    <linearGradient
       inkscape:collect="always"
       id="linearGradient5302">
      <stop
         style="stop-color:#00aa00;stop-opacity:1"
         offset="0"
         id="stop5298" />
      <stop
         style="stop-color:#00ff00;stop-opacity:1"
         offset="1"
         id="stop5300" />
    </linearGradient>
    <linearGradient
       inkscape:collect="always"
       xlink:href="#linearGradient5302"
       id="linearGradient5304"
       x1="544.95117"
       y1="579.04102"
       x2="252.94531"
       y2="134.08008"
       gradientUnits="userSpaceOnUse"
       gradientTransform="matrix(0.26458333,0,0,0.26458333,266.73499,-13.363476)" />
    <pattern
       y="0"
       x="0"
       height="6"
       width="6"
       patternUnits="userSpaceOnUse"
       id="EMFhbasepattern" />
    <linearGradient
       inkscape:collect="always"
       xlink:href="#linearGradient917"
       id="linearGradient919"
       x1="36.768478"
       y1="115.93392"
       x2="173.61653"
       y2="257.31952"
       gradientUnits="userSpaceOnUse" />
    <radialGradient
       inkscape:collect="always"
       xlink:href="#linearGradient907"
       id="radialGradient925"
       gradientUnits="userSpaceOnUse"
       gradientTransform="matrix(0.9028925,-0.00362925,0.00607872,1.5122752,8.5124949,-142.41014)"
       cx="104.06319"
       cy="262.03232"
       fx="104.06319"
       fy="262.03232"
       r="77.233249" />
  </defs>
  <sodipodi:namedview
     id="base"
     pagecolor="#ffffff"
     bordercolor="#666666"
     borderopacity="1.0"
     inkscape:pageopacity="0.0"
     inkscape:pageshadow="2"
     inkscape:zoom="0.7"
     inkscape:cx="-39.207367"
     inkscape:cy="259.18336"
     inkscape:document-units="mm"
     inkscape:current-layer="layer1"
     showgrid="false"
     inkscape:window-width="1920"
     inkscape:window-height="1009"
     inkscape:window-x="-8"
     inkscape:window-y="-8"
     inkscape:window-maximized="1" />
  <metadata
     id="metadata4737">
    <rdf:RDF>
      <cc:Work
         rdf:about="">
        <dc:format>image/svg+xml</dc:format>
        <dc:type
           rdf:resource="http://purl.org/dc/dcmitype/StillImage" />
        <dc:title></dc:title>
      </cc:Work>
    </rdf:RDF>
  </metadata>
  <g
     inkscape:label="Layer 1"
     inkscape:groupmode="layer"
     id="layer1"
     transform="translate(0,-87)">
    <path
       style="fill:url(#linearGradient5304);fill-opacity:1;fill-rule:evenodd;stroke:none;stroke-width:2.60322881;stroke-linecap:butt;stroke-linejoin:round;stroke-miterlimit:4;stroke-dasharray:none;stroke-opacity:1"
       d="m 333.6601,22.111878 c 0,0 -4.60937,16.160771 -6.38979,24.494627 -1.78043,8.333848 -4.2602,25.463045 -4.2602,25.463045 0,0 6.20609,3.621968 9.58494,5.131471 3.37885,1.509509 10.65,3.87263 10.65,3.87263 0,0 4.3257,-9.32625 6.29315,-13.651362 1.96746,-4.325102 5.51853,-12.295891 5.51853,-12.295889 0,0 9.05171,1.261817 13.94178,2.033466 4.89008,0.771652 15.39389,2.613795 15.39389,2.613795 0,0 2.6059,-9.217729 3.38843,-13.26379 0.78254,-4.046098 1.45262,-10.940417 1.45262,-10.940417 0,0 -17.25878,-5.581838 -26.52809,-7.842417 -9.26933,-2.26055 -29.04526,-5.615159 -29.04526,-5.615159 z m 54.89536,44.7306 c 0,0 -2.53386,8.873988 -3.77651,13.359911 -1.24265,4.485872 -3.67937,13.555244 -3.67937,13.555244 0,0 -9.03594,0.484968 -13.84463,0.774628 -4.80869,0.289621 -15.0058,0.967383 -15.0058,0.967383 0,0 -1.03239,9.713526 -1.54926,14.812536 -0.51686,5.099 -1.54874,15.7825 -1.54874,15.7825 0,0 19.11484,6.58547 29.43179,8.90591 10.31695,2.32039 32.33704,4.84053 32.33704,4.84053 0,0 6.13243,-17.60073 8.81135,-27.10842 2.67891,-9.50764 7.16391,-29.917035 7.16391,-29.917035 0,0 -11.4263,-5.076558 -17.81442,-7.745264 -6.38813,-2.668715 -20.52536,-8.227923 -20.52536,-8.227923 z m 10.74663,15.779917 15.97525,7.067785 c 0,0 -2.28316,13.63296 -4.26072,20.23597 -1.99965,6.67684 -7.64863,19.4598 -7.64863,19.4598 0,0 -16.07443,-1.61675 -23.81715,-3.776 -6.51159,-1.81603 -18.7818,-7.64863 -18.7818,-7.64863 l -0.0966,-12.19977 c 0,0 9.92971,0.88689 14.90916,1.06454 4.41852,0.15751 13.26534,0 13.26534,0 0,0 3.5995,-6.69169 5.12992,-10.165277 2.01788,-4.580009 5.32526,-14.038418 5.32526,-14.038418 z m -69.01698,0.05891 c -2.07508,-0.0075 -4.16771,0.357957 -6.01617,1.199925 -3.63713,1.656778 -6.96643,4.586867 -8.81031,8.132836 -1.78771,3.437941 -2.326,7.724942 -1.54926,11.521264 0.70781,3.45952 2.70376,6.84665 5.42189,9.10074 2.67211,2.21587 6.30909,3.45782 9.77821,3.58221 3.85864,0.13835 7.99774,-0.94331 11.13421,-3.19516 2.58155,-1.85336 4.29523,-4.87035 5.42189,-7.8419 0.95649,-2.52273 1.42435,-5.376593 0.9679,-8.035682 -0.65195,-3.79803 -2.36691,-7.674435 -5.13095,-10.359575 -2.21654,-2.153279 -5.37286,-3.378028 -8.42326,-3.872632 -0.91137,-0.14778 -1.85093,-0.22861 -2.79415,-0.232026 z m 71.63129,7.008873 c 0,0 -2.58477,8.357775 -4.06642,12.102112 -1.48164,3.74439 -4.74389,10.35957 -4.74389,10.35957 0,0 -8.01384,0.41036 -12.29589,0.29042 -4.28206,-0.12004 -13.36095,-1.06505 -13.36095,-1.06505 l -0.58084,3.96978 c 0,0 8.72061,3.64631 14.23221,5.03432 5.51159,1.38808 18.78231,2.90473 18.78231,2.90473 0,0 4.47914,-10.52138 6.09989,-15.68431 1.62075,-5.16287 3.67884,-15.200627 3.67884,-15.200627 z"
       id="path4524"
       inkscape:connector-curvature="0"
       inkscape:export-xdpi="4.3149848"
       inkscape:export-ydpi="4.3149848" />
    <path
       style="fill:url(#linearGradient919);fill-opacity:1;stroke:none;stroke-width:1.44752169;stroke-linecap:butt;stroke-linejoin:miter;stroke-miterlimit:4;stroke-dasharray:none;stroke-opacity:1"
       d="m 104.06497,108.96291 c -1.28437,0.001 -2.56545,0.0335 -3.84008,0.0951 -10.064366,0.48634 -20.068386,3.4506 -29.266948,7.56336 -0.962594,0.43039 -1.921949,0.87852 -2.875278,1.3441 0.297731,-0.0489 0.598189,-0.087 0.902272,-0.1111 1.75536,-0.13918 3.174865,1.78431 4.932516,1.89084 2.706719,0.16406 5.201327,-2.30553 7.892539,-1.97301 1.788578,0.22099 3.171846,1.71227 4.768186,2.54869 2.019215,1.05797 3.855225,3.6056 6.08335,3.12384 0.991383,-0.21435 0.914408,-2.10929 1.89084,-2.38384 2.754177,-0.77447 5.199448,2.80643 8.056353,2.95951 1.12825,0.0604 2.65187,0.11116 3.28869,-0.82217 0.96551,-1.41507 -1.72768,-3.75889 -0.65784,-5.09685 0.3094,-0.38694 0.87483,-0.57615 1.43867,-0.57774 0.43854,-0.001 0.87612,0.11031 1.19218,0.33073 2.27895,1.58939 -0.596,7.55818 2.13733,8.05687 1.85524,0.33847 1.43697,-4.24655 3.28869,-4.60385 0.79864,-0.15412 1.70885,0.57921 2.05517,1.31516 0.57598,1.22405 0.4565,3.06561 -0.4935,4.0287 -0.85458,0.86635 -2.40492,0.0263 -2.95951,1.10949 -0.66487,1.29853 1.73559,1.82817 1.39784,3.24735 -0.26404,1.10947 -1.65515,2.0043 -2.79518,1.973 -0.83849,-0.023 -1.71483,-0.76356 -1.973,-1.56166 -0.40318,-1.24635 1.25589,-2.4002 0.16433,-3.12435 -0.87731,-0.58201 -0.68108,0.73942 -1.56218,1.31568 -2.56461,1.67729 -6.35824,1.78044 -8.13852,4.27467 -1.256369,1.76023 -2.041901,4.52494 -0.986505,6.41253 1.654168,2.9586 7.638045,1.03348 9.372035,3.94601 1.00014,1.67988 -1.79599,4.30941 -0.57567,5.83685 0.55161,0.69045 1.93551,0.87461 2.63085,0.32919 1.30247,-1.02166 -0.3499,-3.55976 0.57515,-4.93252 0.73329,-1.08821 2.86582,-0.71732 3.45302,-1.89084 0.60694,-1.21302 -0.69749,-2.67778 -0.57567,-4.0287 0.18678,-2.07137 0.0758,-5.06702 1.97301,-5.91901 2.28459,-1.02594 5.46147,0.91375 6.90603,2.9595 0.74442,1.05424 -0.47804,2.79585 0.2465,3.86385 0.32345,0.47677 0.99266,0.82691 1.56218,0.74001 1.43778,-0.21954 1.8324,-3.43769 3.206,-2.95951 2.17423,0.75691 -0.14046,4.86422 1.06867,6.82335 0.86666,1.40423 3.05636,1.54375 4.02818,2.87735 0.7962,1.09263 1.77756,2.62618 1.23352,3.86385 -0.65617,1.49283 -2.82874,1.80137 -4.43953,2.05517 -2.01792,0.31795 -4.09327,-1.20056 -6.08335,-0.73949 -1.91041,0.44262 -5.67547,1.39095 -4.93303,3.206 0.73045,1.78573 4.24146,-2.44486 5.67252,-1.15083 0.8171,0.73883 -0.9087,2.35163 -0.32866,3.28817 1.01834,1.64423 5.42603,2.05517 5.42603,2.05517 l -7.39903,2.22002 c 0,0 1.54134,-1.63032 0.9865,-2.22002 -1.5033,-1.59779 -4.85949,0.53986 -6.16603,2.30219 -0.52324,0.70581 0.36308,1.92812 -0.16433,2.63084 -0.87415,1.16473 -2.9655,0.57948 -4.11035,1.4795 -1.44595,1.13676 -2.40388,2.87867 -3.04167,4.60385 -0.30645,0.82888 0.10458,1.86091 -0.32918,2.63085 -1.47469,2.61759 -5.95338,2.80112 -7.06985,5.59036 -0.87421,2.18391 1.19967,4.64498 0.9865,6.98768 -0.0628,0.69041 -5.3e-4,1.75272 -0.65784,1.97301 -0.5045,0.16908 -0.99611,-0.47854 -1.31517,-0.90434 -1.262752,-1.68516 -0.289813,-4.73578 -1.973002,-6.00118 -1.819195,-1.36765 -5.255228,-1.89607 -6.823358,-0.2465 -0.435885,0.45853 0.164333,1.89084 0.164333,1.89084 0,0 -2.645116,-1.55718 -4.11086,-1.56218 -1.725544,-0.005 -3.743413,0.48496 -4.85035,1.80868 -1.875798,2.24313 -2.056564,5.75012 -1.561663,8.63203 0.299132,1.74197 1.110067,3.70233 2.630331,4.60385 1.249466,0.74102 3.193743,0.95175 4.357357,0.0822 0.91082,-0.68054 0.904338,-3.28869 0.904338,-3.28869 l 4.850349,-0.65732 c 0,0 -4.462105,5.08038 -3.12384,7.39903 1.104395,1.91348 5.278996,-0.9663 6.576859,0.82165 0.934537,1.28737 -1.331693,3.15367 -0.904338,4.68602 0.307509,1.10265 1.211077,2.20082 2.301669,2.54869 1.203505,0.38387 2.462745,-1.0794 3.699515,-0.82218 0.72983,0.1518 1.06348,1.2973 1.80868,1.31568 2.65182,0.0655 4.4705,-5.85625 6.65902,-4.35735 1.08642,0.74408 -1.65075,2.84042 -0.82217,3.86385 0.20693,0.25557 0.73361,0.21017 0.9865,0 0.92176,-0.7661 -0.22826,-2.72812 0.65784,-3.53519 0.67133,-0.61145 1.96539,-0.76188 2.71302,-0.2465 0.58577,0.4038 -1.6e-4,1.63666 0.57516,2.05518 1.66336,1.20999 4.22468,-0.92619 6.16603,-0.2465 2.292,0.80245 3.34274,3.66912 5.50819,4.76818 1.85539,0.9417 4.54322,-0.001 6.08335,1.39785 1.21873,1.10707 0.36488,3.55527 1.56218,4.6855 3.28227,3.09837 9.55647,0.70305 13.07103,3.53519 0.64897,0.52294 1.25867,1.39299 1.15135,2.2195 -0.20491,1.57755 -2.36096,2.18769 -3.20652,3.53519 -0.73844,1.1767 -1.00047,2.59302 -1.56166,3.86384 -0.92094,2.08546 -1.36052,4.54104 -2.95951,6.16603 -1.59018,1.61603 -4.53685,1.38429 -6.08387,3.04168 -0.72925,0.78127 -0.62916,2.07772 -1.233,2.95951 -1.58783,2.31873 -3.51868,4.68901 -6.08386,5.83685 -0.97843,0.43779 -2.80783,-0.74818 -3.20601,0.24701 -0.27392,0.68458 1.67848,0.9337 1.48001,1.64383 -0.48539,1.73667 -3.72946,0.49031 -5.17953,1.56218 -2.33472,1.7258 -4.85035,7.23418 -4.85035,7.23418 l -3.94601,-0.41083 c 0,0 -1.45752,-4.32987 -1.48001,-6.57685 -0.0274,-2.74075 1.36891,-5.32934 1.64434,-8.05636 0.23681,-2.34477 1.14366,-5.00979 0,-7.07037 -1.20663,-2.17409 -4.5095,-2.25276 -6.33036,-3.94601 -2.38424,-2.21713 -4.67482,-4.82051 -5.754687,-7.89203 -0.591413,-1.68219 -0.825291,-3.6573 -0.246497,-5.34386 0.725554,-2.11416 3.820394,-2.92711 4.357354,-5.09684 0.41844,-1.69077 -0.16436,-3.66221 -1.15135,-5.09737 -0.22396,-0.32562 -0.59383,-0.70222 -0.9865,-0.65732 -0.63559,0.0727 -0.68531,1.28532 -1.31517,1.39733 -2.352824,0.41851 -4.3808,-1.94782 -6.412525,-3.20601 -2.595369,-1.60725 -4.552685,-4.21149 -7.316348,-5.50819 -1.402061,-0.65783 -3.060213,-0.5562 -4.521687,-1.06866 -2.718369,-0.95313 -5.791898,-1.64387 -7.809859,-3.69952 -1.726986,-1.75925 -1.880645,-4.56675 -3.042193,-6.74119 -2.221304,-4.15834 -7.480681,-12.00289 -7.480681,-12.00289 0,0 2.017416,7.01697 4.85035,11.92072 0.228145,0.3949 -0.883523,1.10918 -1.15135,0.74001 -3.799062,-5.23677 -5.501397,-11.84286 -8.632032,-17.18241 -1.365353,-2.32873 -1.019997,-5.36414 -0.822171,-8.05636 0.285906,-3.89092 2.445208,-7.46769 2.87786,-11.34504 0.465111,-4.16828 0.09982,-8.40589 -0.329179,-12.57805 -0.236421,-2.2992 0.625377,-5.44906 -1.232998,-6.82335 -1.863852,-1.37835 -5.121571,-0.65866 -6.905522,0.82165 -5.564732,4.6176 -12.703894,11.99962 -12.703101,11.99462 0,0 4.258178,-6.74564 7.605737,-9.5281 0.992494,-0.82496 -0.690386,-2.65199 -0.246497,-3.86385 0.109691,-0.29946 0.236747,-0.5896 0.375687,-0.87281 -7.087703,8.04468 -12.931946,17.50441 -16.078086,27.67324 -3.989718,12.89543 -4.805352,27.24964 -1.973008,40.44766 2.607548,12.1505 8.74953,23.86278 16.935402,33.21296 8.071384,9.21938 18.730537,16.71403 30.25345,20.88141 12.626692,4.56659 26.832841,5.56136 40.118481,3.61735 9.92916,-1.45288 19.7002,-5.47018 27.95178,-11.18071 9.95259,-6.88773 18.69292,-16.18032 24.49876,-26.80043 2.46049,-4.50074 4.43642,-9.31084 5.94279,-14.28026 -0.10101,-0.41305 -0.61903,-2.36086 -1.52755,-2.45567 -0.7364,-0.0769 -0.93,1.16954 -1.51154,1.62781 -1.11756,0.8807 -2.32833,2.38833 -3.72018,2.0929 -1.11075,-0.23577 -1.38925,-1.79864 -2.03502,-2.73266 -0.83757,-1.21145 -2.07895,-2.27919 -2.38332,-3.72018 -0.39307,-1.86087 0.60704,-3.75561 0.8723,-5.63893 0.32149,-2.28238 0.10944,-4.68433 0.87178,-6.85953 0.75071,-2.14202 2.62223,-3.73982 3.54604,-5.81308 0.88079,-1.97675 1.86035,-6.21978 1.86035,-6.21978 0,0 1.11749,0.70263 1.74356,0.69763 1.32062,-0.007 3.66231,-1.51153 3.66231,-1.51153 0,0 -0.17001,2.30512 0.29094,3.31349 0.3703,0.8101 1.85983,1.91823 1.85983,1.91823 0,0 -0.31961,8.28164 -0.87178,12.38219 -0.45393,3.37121 -1.72914,9.16999 -2.31045,11.7414 1.90697,-6.64936 2.9815,-13.56097 3.24631,-20.38583 0.15923,-4.1038 -0.15139,-8.24253 -0.83509,-12.33259 -0.36129,-1.35722 -1.06013,-3.2616 -2.19366,-3.55482 -0.63481,-0.1642 -1.26893,0.55575 -1.62729,1.10484 -0.93613,1.43541 0.28919,3.85238 -0.93018,5.05706 -0.48947,0.48361 -1.39128,0.59326 -2.0345,0.34881 -0.92786,-0.35256 -1.79275,-1.33462 -1.86035,-2.32492 -0.13641,-2.00047 -0.20037,-3.85794 -0.17467,-5.46426 0.0176,-1.09958 3.19722,0.81338 3.19722,0.81338 0,0 0.3317,-1.77002 0.11627,-2.61586 -0.29609,-1.16256 -1.85983,-3.08095 -1.85983,-3.08095 0,0 1.71014,-1.52432 2.09238,-2.55746 0.58511,-1.5815 0.11627,-5.05757 0.11627,-5.05757 0,0 0.68804,1.60492 1.44694,3.50624 -0.17996,-0.4903 -0.36262,-0.97903 -0.55087,-1.46451 -3.40893,-8.79105 -8.50616,-17.13406 -14.96239,-24.00577 -1.55979,-1.66016 -3.18808,-3.27567 -4.87568,-4.83691 0.69501,0.82701 2.86226,3.58523 2.0805,5.00176 -0.70972,1.286 -2.9278,0.31773 -4.35684,0.65732 -1.7115,0.40674 -3.7556,0.41578 -5.01468,1.64435 -1.5819,1.54355 -2.22002,6.2482 -2.22002,6.2482 0,0 -4.85804,-4.55488 -6.00119,-7.56337 -0.87738,-2.30904 0.0874,-4.9797 -0.41083,-7.39903 -0.48266,-2.34357 -0.97947,-4.86663 -2.46651,-6.74119 -1.83275,-2.31036 -7.66518,-1.91336 -7.39903,-4.85035 0.12082,-1.3331 3.69951,-1.56218 3.69951,-1.56218 0,0 5.17462,2.39974 8.97517,4.52531 -3.2447,-2.00156 -6.62651,-3.7528 -10.126,-5.18315 -8.26879,-3.37969 -17.42285,-4.8729 -26.41337,-4.86327 z m 36.53937,10.04642 c 2.16151,1.33338 4.26176,2.77836 6.29418,4.31601 -1.45988,-1.14746 -2.91834,-2.24509 -4.08863,-3.00446 -0.62597,-0.40618 -1.38544,-0.85288 -2.20555,-1.31155 z m 6.29418,4.31601 c 2.07688,1.63242 4.14713,3.36537 5.40122,4.43436 -1.74037,-1.54545 -3.54263,-3.02823 -5.40122,-4.43436 z m 5.40122,4.43436 c 0.47814,0.42457 0.94979,0.85516 1.41852,1.28881 -0.12731,-0.1515 -0.22117,-0.25993 -0.22117,-0.25993 0,0 -0.46099,-0.40121 -1.19735,-1.02888 z m 21.80746,31.596 c 1.63658,4.45897 2.92306,9.1095 3.7114,13.82551 0.12383,0.46519 0.20503,0.84946 0.2527,1.09761 -0.14372,-0.78828 -1.29583,-7.04712 -2.2717,-10.29084 -0.38051,-1.26479 -1.06072,-3.0497 -1.6924,-4.63228 z m 3.9641,14.92312 c 0.009,0.052 0.0537,0.28887 0.0537,0.28887 0,0 -0.0212,-0.11964 -0.0537,-0.28887 z m -2.66392,31.62081 c -0.11284,0.39344 -0.22858,0.78618 -0.34727,1.17771 0.0114,0.0468 0.0419,0.16019 0.0419,0.16019 0,0 0.1269,-0.54828 0.30541,-1.3379 z M 47.410541,133.50612 c 0.923827,-1.04856 1.867408,-2.07434 2.83032,-3.0732 5.028361,-5.21609 11.291345,-9.26834 17.841803,-12.46746 -4.831275,0.79386 -8.847986,4.72878 -12.744441,7.78144 -2.891735,2.26554 -6.327249,4.49699 -7.927682,7.75922 z m 44.738872,-20.39979 c 0.326525,-8e-4 0.637627,0.007 0.922941,0.0212 1.297524,0.0632 2.232406,1.41827 3.49436,1.72651 1.318,0.32202 3.161186,-0.9261 4.069006,0.0822 1.08571,1.20583 -0.191,4.82445 -0.41083,4.85035 0,0 -6.068986,1.67394 -9.043376,1.06866 -0.865989,-0.17622 -2.130168,-0.44823 -2.301668,-1.31516 -0.151583,-0.76625 1.586576,-1.08303 1.438671,-1.85002 -0.267406,-1.3868 -3.776088,-0.72993 -3.658174,-2.13733 0.166974,-1.99259 3.203393,-2.44012 5.48907,-2.44637 z m 22.623937,3.58221 c 2.74628,-0.0479 6.31258,1.23799 6.00429,1.20716 -0.41104,-0.0411 4.04946,3.81633 5.75469,6.00118 1.47355,1.888 4.18728,3.71684 3.8225,6.08387 -0.14511,0.94153 -0.56819,1.22947 -1.52084,1.233 -0.9824,0.005 -0.96066,0.76068 -0.96066,0.76068 0,0 -0.32639,0.40839 -0.60151,1.70584 -0.20504,0.96694 -1.07937,1.97981 -2.05517,2.13733 -1.4219,0.22951 -2.79898,-1.00097 -3.82251,-2.01434 -0.69704,-0.69013 -1.5733,-1.28281 -2.34301,-1.89084 -1.12409,-0.88792 -3.20652,-1.80868 -3.20652,-1.80868 0,0 5.76965,-0.51695 6.49469,-2.75384 0.59702,-1.84193 -1.43301,-3.83691 -3.00033,-4.97385 -2.11733,-1.5359 -5.74065,-0.76702 -7.12257,-2.98793 -0.60222,-0.96788 -0.66113,-1.43443 0.25787,-2.10892 0.55936,-0.41053 1.38366,-0.5747 2.29908,-0.59066 z m 41.37784,22.07049 c 0,0 2.15296,0.34449 3.08095,0.87178 0.85806,0.48756 1.87827,1.08597 2.15077,2.0345 0.14923,0.51947 0.0794,1.33317 -0.40669,1.56941 -0.9131,0.44372 -2.02216,-0.55708 -2.79053,-1.2206 -0.9685,-0.83634 -2.0345,-3.25509 -2.0345,-3.25509 z m -63.159452,12.18685 c -1.346295,0.0471 -3.226676,2.22932 -3.226676,2.22932 0,0 1.868072,-0.46775 2.732132,-0.17415 0.390065,0.13253 0.523606,0.74746 0.930178,0.81391 0.497194,0.0813 1.395264,-0.58137 1.395264,-0.58137 0,0 -0.669179,-2.08412 -1.569932,-2.26704 -0.08429,-0.0171 -0.171212,-0.0238 -0.260966,-0.0207 z m 74.571162,0.57619 c 0.0577,0.005 0.11067,0.0172 0.15658,0.0388 1.76988,0.83113 1.96014,3.39255 2.75383,5.17953 0.62106,1.39829 1.56218,4.31601 1.56218,4.31601 0,0 -1.74675,0.62908 -2.34301,0.12299 -0.56757,-0.48174 0.3122,-1.7275 -0.24649,-2.2195 -0.63761,-0.56161 -1.88391,0.56992 -2.54869,0.0408 -0.82215,-0.65436 -1.13306,-2.14537 -0.65784,-3.08251 0.33284,-0.65637 1.77767,-0.20748 2.01435,-0.90433 0.39037,-1.14934 -1.72651,-3.20652 -1.72651,-3.20652 0,0 0.63169,-0.32059 1.0356,-0.28526 z m -35.71049,1.53686 c 0,0 0.38998,1.90545 1.10433,2.44171 0.43832,0.32902 1.62781,0.23254 1.62781,0.23254 l 0.69763,4.06901 c 0,0 -2.43288,-1.48891 -3.77858,-1.91823 -0.87722,-0.27987 -2.73213,-0.4067 -2.73213,-0.4067 z m -36.390538,1.04645 c 0,0 -0.548,1.4911 -0.341064,2.29391 0.0249,0.0469 0.04355,0.0958 0.05064,0.1478 0.471551,1.06729 3.429768,2.17971 3.429768,2.17971 0,0 -0.0534,-1.7124 -0.348817,-2.41226 -0.461369,-1.09288 -2.790528,-2.20916 -2.790527,-2.20916 z m -0.290423,2.44171 c -0.02027,-0.0459 -0.03715,-0.0954 -0.05064,-0.1478 -0.335269,-0.63221 -2.16168,-0.78976 -2.21692,-0.0848 -0.09791,1.24944 -0.293933,3.14065 0.0584,4.65036 0.112289,0.48109 0.169154,1.18542 0.639236,1.33739 0.46204,0.14935 1.190395,-0.22017 1.278993,-0.69763 0.351036,-1.89174 0.513988,-3.42338 0.290936,-5.05757 z m 11.316621,2.12183 c -0.91383,0.0166 -2.15129,0.17348 -2.24844,0.95912 -0.0937,0.7576 1.33147,0.87586 2.0929,0.93017 1.06463,0.076 3.11802,0.19439 3.08095,-0.8723 -0.0296,-0.85075 -1.70684,-1.00246 -2.55799,-1.01699 -0.11307,-0.002 -0.23687,-0.002 -0.36742,0 z m -6.16189,0.91984 c -0.709313,0.0125 -1.485235,0.13259 -1.550815,0.70797 -0.09935,0.87168 1.394295,1.24721 2.267045,1.33687 0.95702,0.0983 2.70866,0.0316 2.73213,-0.93018 0.0244,-1.00001 -1.79033,-1.06881 -2.79001,-1.10432 -0.19292,-0.007 -0.42192,-0.0145 -0.65835,-0.0103 z m -0.674898,31.32264 c 1.631938,0.0508 3.241868,0.87494 4.725288,1.59008 1.36302,0.65712 3.69952,2.63085 3.69952,2.63085 l -3.78168,0.49299 c 0,0 -0.5913,-1.49405 -1.19218,-1.973 -1.06054,-0.84527 -2.51612,-1.12252 -3.863844,-1.27383 -1.148929,-0.12899 -3.453019,0.32866 -3.453019,0.32866 0,0 1.964696,-1.62928 3.165182,-1.76733 0.233719,-0.0269 0.467598,-0.0357 0.700733,-0.0284 z m 11.775508,4.43952 c 0.28839,-0.005 0.56159,0.01 0.77721,0.0568 1.0922,0.23966 2.96468,1.56993 2.96468,1.56993 0,0 -1.88038,0.33082 -2.79053,0.6103 -0.59851,0.18379 -1.11864,0.66892 -1.74408,0.69763 -1.01973,0.0469 -2.93574,-0.87229 -2.93574,-0.87229 0,0 1.86939,0.19563 2.26757,-0.46509 0.25004,-0.41493 -0.40721,-1.39475 -0.40721,-1.39475 0,0 1.00291,-0.18831 1.8681,-0.20257 z m -7.69617,1.46606 c 0.55665,-0.0247 1.2128,0.25096 1.67328,0.53485 0.21027,0.12964 0.51632,0.39291 0.41135,0.6165 -0.22252,0.47392 -1.03893,0.18209 -1.56218,0.16485 -0.40299,-0.0133 -0.93241,0.10274 -1.19218,-0.20567 -0.18537,-0.22006 -0.2155,-0.67286 0,-0.86352 0.18417,-0.16293 0.4167,-0.2358 0.66973,-0.24701 z"
       id="path817"
       inkscape:connector-curvature="0" />
    <path
       id="path820"
       d="m 177.64319,156.04511 c 0,0 3.82424,10.6522 4.64038,16.21443 0.76079,5.18508 0.19872,15.72054 0.19872,15.72054 0,0 -22.01515,21.8238 -33.92475,27.98732 -13.53808,7.00613 -29.34298,9.97582 -44.58532,10.17127 -17.178042,0.22045 -34.926517,-2.97217 -50.524824,-10.17127 -10.007847,-4.61903 -29.399264,-22.70204 -29.399264,-22.70204 0,0 -0.416029,-11.03753 0,-16.53271 0.357379,-4.7205 2.138156,-14.04015 2.138156,-14.04015 0,0 18.576675,18.98132 29.507802,25.35168 14.624952,8.52293 31.219263,16.47311 48.14351,16.15487 14.52264,-0.27272 28.52598,-7.57815 40.7614,-15.40592 12.55423,-8.03183 33.04419,-32.74802 33.04419,-32.74802 z"
       style="fill:#111614;fill-opacity:1;stroke:#68f8da;stroke-width:3;stroke-linecap:butt;stroke-linejoin:round;stroke-miterlimit:4;stroke-dasharray:none;stroke-opacity:1"
       inkscape:connector-curvature="0"
       sodipodi:nodetypes="cscssscscsssc" />
    <path
       id="path822"
       d="m 103.8376,228.91268 c 6.17414,-0.52256 12.92201,1.47629 17.82933,5.25954 4.22001,3.25329 7.28403,8.44129 8.27512,13.67687 1.13733,6.0082 -0.11362,12.74571 -3.10261,18.08049 -2.80386,5.00482 -7.51592,9.48801 -12.94526,11.34049 -6.56024,2.23839 -14.536765,1.77863 -20.755179,-1.28385 -5.986035,-2.94817 -11.272034,-8.68462 -13.159209,-15.08492 -2.081099,-7.05792 -1.167364,-15.89901 3.164705,-21.84707 4.522301,-6.20927 13.038837,-9.4939 20.693103,-10.14155 z"
       style="fill:url(#radialGradient925);fill-opacity:1;stroke:#111614;stroke-width:3;stroke-linecap:butt;stroke-linejoin:miter;stroke-miterlimit:4;stroke-dasharray:none;stroke-opacity:1"
       inkscape:connector-curvature="0"
       sodipodi:nodetypes="aaaaaaaaa" />
    <path
       id="path824"
       d="m 103.54163,199.84079 0.61722,31.21157"
       style="fill:none;stroke:#68f8da;stroke-width:3;stroke-linecap:round;stroke-linejoin:miter;stroke-miterlimit:4;stroke-dasharray:none;stroke-opacity:1"
       inkscape:connector-curvature="0"
       sodipodi:nodetypes="cc" />
    <path
       style="fill:#111614;fill-opacity:1;stroke:none;stroke-width:0.26458332px;stroke-linecap:butt;stroke-linejoin:miter;stroke-opacity:1"
       d="m 104.36875,270.54032 c 0,0 -12.185849,-8.18418 -14.967093,-14.56619 -1.54866,-3.55365 -1.245345,-6.59719 0.801809,-9.88898 1.841816,-2.96161 4.841557,-5.49557 8.285354,-4.94448 2.83185,0.45317 6.41447,4.67722 6.41447,4.67722 0,0 4.33816,-5.09336 7.88445,-5.34539 3.22406,-0.22913 5.12574,2.32273 6.81538,5.07812 2.40128,3.91591 2.81859,7.63275 0.8018,11.75986 -3.22847,6.60665 -16.03617,13.22984 -16.03617,13.22984 z"
       id="path921"
       inkscape:connector-curvature="0"
       sodipodi:nodetypes="cssscsssc" />
  </g>
</svg>
