<?xml version="1.0" encoding="UTF-8" standalone="no"?>
<!-- Created with Inkscape (http://www.inkscape.org/) -->

<svg
   xmlns:dc="http://purl.org/dc/elements/1.1/"
   xmlns:cc="http://creativecommons.org/ns#"
   xmlns:rdf="http://www.w3.org/1999/02/22-rdf-syntax-ns#"
   xmlns:svg="http://www.w3.org/2000/svg"
   xmlns="http://www.w3.org/2000/svg"
   xmlns:sodipodi="http://sodipodi.sourceforge.net/DTD/sodipodi-0.dtd"
   xmlns:inkscape="http://www.inkscape.org/namespaces/inkscape"
   width="210mm"
   height="297mm"
   viewBox="0 0 210 297"
   version="1.1"
   id="svg4740"
   inkscape:version="0.92.4 (5da689c313, 2019-01-14)"
   sodipodi:docname="domprot tier 1.svg"
   inkscape:export-filename="C:\Users\conno\Documents\GitHub\domestication-mod\other_gfx\domprot tier 1.png"
   inkscape:export-xdpi="5.3800001"
   inkscape:export-ydpi="5.3800001">
  <defs
     id="defs4734" />
  <sodipodi:namedview
     id="base"
     pagecolor="#ffffff"
     bordercolor="#666666"
     borderopacity="1.0"
     inkscape:pageopacity="0.0"
     inkscape:pageshadow="2"
     inkscape:zoom="0.98994949"
     inkscape:cx="500.06747"
     inkscape:cy="715.16227"
     inkscape:document-units="mm"
     inkscape:current-layer="layer1"
     showgrid="false"
     inkscape:window-width="1920"
     inkscape:window-height="1009"
     inkscape:window-x="-8"
     inkscape:window-y="-8"
     inkscape:window-maximized="1" />
  <metadata
     id="metadata4737">
    <rdf:RDF>
      <cc:Work
         rdf:about="">
        <dc:format>image/svg+xml</dc:format>
        <dc:type
           rdf:resource="http://purl.org/dc/dcmitype/StillImage" />
        <dc:title />
      </cc:Work>
    </rdf:RDF>
  </metadata>
  <g
     inkscape:label="Layer 1"
     inkscape:groupmode="layer"
     id="layer1">
    <path
       style="fill:#6af9db;fill-opacity:1;fill-rule:evenodd;stroke:none;stroke-width:9.83897495;stroke-linecap:butt;stroke-linejoin:round;stroke-miterlimit:4;stroke-dasharray:none;stroke-opacity:1"
       d="m 252.94531,134.08008 c 0,0 -17.42123,61.08008 -24.15039,92.57812 -6.72917,31.49801 -16.10156,96.23828 -16.10156,96.23828 0,0 23.45612,13.68933 36.22656,19.39454 12.77045,5.70523 40.25196,14.63671 40.25196,14.63671 0,0 16.3491,-35.24882 23.78515,-51.5957 7.43606,-16.34684 20.85742,-46.47266 20.85742,-46.47265 0,0 34.21119,4.76907 52.69336,7.68554 18.48219,2.91648 58.18164,9.87891 58.18164,9.87891 0,0 9.84905,-34.83866 12.80664,-50.13086 2.95764,-15.29234 5.49024,-41.34961 5.49024,-41.34961 0,0 -65.23006,-21.09671 -100.26367,-29.64063 -35.03367,-8.54381 -109.77735,-21.22265 -109.77735,-21.22265 z"
       transform="scale(0.26458333)"
       id="path5314"
       inkscape:connector-curvature="0" />
    <path
       style="fill:#6af9db;fill-opacity:1;fill-rule:evenodd;stroke:none;stroke-width:9.83897495;stroke-linecap:butt;stroke-linejoin:round;stroke-miterlimit:4;stroke-dasharray:none;stroke-opacity:1"
       d="m 513.28097,324.56919 c 0,0 -7.29076,21.2574 -11.98741,38.21206 -2.00205,7.22729 -6.74684,26.63659 -12.40157,46.23905 -7.61069,26.38293 -27.3666,45.23947 -27.3666,45.23947 0,0 -26.47865,3.86724 -53.12141,2.80311 -22.59762,-0.90257 -45.41551,-5.74562 -53.61746,-5.8164 -18.20685,-0.15712 -36.1037,-2.37453 -36.10371,-2.37453 0,0 -0.3918,16.46434 -2.3453,35.73619 -1.9535,19.27181 -4.84337,42.4778 -4.84337,42.4778 0,0 72.24507,24.89008 111.23828,33.66015 38.99318,8.77007 122.21875,18.29493 122.21875,18.29493 0,0 23.17768,-66.52246 33.30274,-102.45704 10.12501,-35.93438 27.07617,-113.07226 27.07617,-113.07226 0,0 -22.98295,-9.59054 -47.12703,-19.67699 -24.14411,-10.08648 -44.92208,-19.26554 -44.92208,-19.26554 z"
       transform="scale(0.26458333)"
       id="path5312"
       inkscape:connector-curvature="0"
       sodipodi:nodetypes="csscsscscscscsc" />
    <path
       style="fill:#6af9db;fill-opacity:1;fill-rule:evenodd;stroke:none;stroke-width:9.83897495;stroke-linecap:butt;stroke-linejoin:round;stroke-miterlimit:4;stroke-dasharray:none;stroke-opacity:1"
       d="m 501.04102,362.78125 60.3789,26.71289 c 0,0 -8.62927,51.52613 -16.10351,76.48242 -7.55774,25.2353 -28.90821,73.54883 -28.90821,73.54883 0,0 -60.75375,-6.11054 -90.01758,-14.27148 C 401.77989,518.39017 355.4043,496.3457 355.4043,496.3457 l -0.36524,-46.10937 c 0,0 37.52961,3.35204 56.34961,4.02344 16.69992,0.59531 50.13672,0 50.13672,0 0,0 13.60441,-25.2914 19.38867,-38.41993 7.62664,-17.31027 20.12696,-53.05859 20.12696,-53.05859 z"
       transform="scale(0.26458333)"
       id="path5310"
       inkscape:connector-curvature="0" />
    <path
       style="fill:#6af9db;fill-opacity:1;fill-rule:evenodd;stroke:none;stroke-width:9.83897495;stroke-linecap:butt;stroke-linejoin:round;stroke-miterlimit:4;stroke-dasharray:none;stroke-opacity:1"
       d="m 240.18945,363.00391 c -7.84284,-0.0284 -15.75199,1.35291 -22.73828,4.53515 -13.74665,6.26184 -26.32984,17.33619 -33.29883,30.73828 -6.75671,12.99379 -8.79116,29.19663 -5.85546,43.54493 2.67519,13.07535 10.21893,25.87708 20.49218,34.39648 10.09931,8.37494 23.84539,13.06893 36.95703,13.53906 14.58382,0.5229 30.22766,-3.56524 42.08203,-12.07617 9.75705,-7.00482 16.23394,-18.40765 20.49219,-29.63867 3.61507,-9.53473 5.38337,-20.32099 3.65821,-30.37109 -2.46407,-14.35476 -8.94581,-29.00574 -19.39258,-39.1543 -8.37748,-8.13838 -20.30685,-12.76735 -31.83594,-14.63672 -3.44455,-0.55854 -6.99562,-0.86404 -10.56055,-0.87695 z"
       transform="scale(0.26458333)"
       id="path5308"
       inkscape:connector-curvature="0" />
    <path
       style="fill:#6af9db;fill-opacity:1;fill-rule:evenodd;stroke:none;stroke-width:9.83897495;stroke-linecap:butt;stroke-linejoin:round;stroke-miterlimit:4;stroke-dasharray:none;stroke-opacity:1"
       d="m 498.06474,384.49414 c 0,0 -6.91214,30.51698 -12.51201,44.66881 -5.59996,14.15203 -15.42968,33.44001 -15.42968,33.44001 0,0 -29.21708,-0.23455 -45.40123,-0.68806 -16.18414,-0.4535 -46.21234,-2.95396 -46.21234,-2.95396 l -0.0525,27.5039 c 0,0 32.9598,13.7812 53.79102,19.02735 20.83123,5.24615 70.98828,10.97851 70.98828,10.97851 0,0 16.92899,-39.76587 23.05469,-59.27929 6.12563,-19.51322 13.90429,-57.45118 13.90429,-57.45118 z"
       transform="scale(0.26458333)"
       id="path4524"
       inkscape:connector-curvature="0"
       sodipodi:nodetypes="cscsccscscc" />
    <flowRoot
       xml:space="preserve"
       id="flowRoot5327"
       style="font-style:normal;font-variant:normal;font-weight:bold;font-stretch:normal;font-size:40px;line-height:1.25;font-family:Arial;-inkscape-font-specification:'Arial, Bold';font-variant-ligatures:normal;font-variant-caps:normal;font-variant-numeric:normal;font-feature-settings:normal;text-align:start;letter-spacing:0px;word-spacing:0px;writing-mode:lr-tb;text-anchor:start;fill:#6af9db;fill-opacity:1;stroke:none;"
       transform="matrix(0.38737645,0,0,0.38737645,-49.428739,-51.514775)"><flowRegion
         id="flowRegion5329"
         style="font-style:normal;font-variant:normal;font-weight:bold;font-stretch:normal;font-size:40px;font-family:Arial;-inkscape-font-specification:'Arial, Bold';font-variant-ligatures:normal;font-variant-caps:normal;font-variant-numeric:normal;font-feature-settings:normal;text-align:start;writing-mode:lr-tb;text-anchor:start;fill:#6af9db;fill-opacity:1;"><rect
           id="rect5331"
           width="110.50873"
           height="154.26624"
           x="359.61432"
           y="308.33673"
           style="font-style:normal;font-variant:normal;font-weight:bold;font-stretch:normal;font-size:40px;font-family:Arial;-inkscape-font-specification:'Arial, Bold';font-variant-ligatures:normal;font-variant-caps:normal;font-variant-numeric:normal;font-feature-settings:normal;text-align:start;writing-mode:lr-tb;text-anchor:start;fill:#6af9db;fill-opacity:1;" /></flowRegion><flowPara
         id="flowPara5333"
         style="font-style:normal;font-variant:normal;font-weight:bold;font-stretch:normal;font-size:133.33332825px;font-family:Arial;-inkscape-font-specification:'Arial, Bold';font-variant-ligatures:normal;font-variant-caps:normal;font-variant-numeric:normal;font-feature-settings:normal;text-align:start;writing-mode:lr-tb;text-anchor:start;fill:#6af9db;fill-opacity:1;">1</flowPara></flowRoot>  </g>
</svg>
